<?xml version="1.0" standalone="no"?>
<!DOCTYPE svg PUBLIC "-//W3C//DTD SVG 20010904//EN"
 "http://www.w3.org/TR/2001/REC-SVG-20010904/DTD/svg10.dtd">
<svg version="1.0" xmlns="http://www.w3.org/2000/svg"
 width="500.000000pt" height="500.000000pt" viewBox="0 0 500.000000 500.000000"
 preserveAspectRatio="xMidYMid meet">
<metadata>
Created by potrace 1.14, written by Peter Selinger 2001-2017
</metadata>
<g transform="translate(0.000000,500.000000) scale(0.100000,-0.100000)"
fill="#000000" stroke="none">
<path d="M2380 4444 c-178 -19 -341 -54 -485 -105 -83 -29 -284 -121 -329
-151 -11 -7 -49 -31 -85 -54 -396 -248 -717 -709 -826 -1189 -44 -194 -56
-481 -29 -685 64 -481 326 -939 717 -1254 231 -185 584 -341 872 -385 39 -6
86 -13 105 -16 72 -11 298 -14 375 -5 44 5 103 12 130 15 203 25 519 139 710
258 481 298 810 779 899 1312 27 158 29 187 28 350 -2 447 -145 847 -432 1203
-301 375 -763 633 -1245 697 -52 7 -359 13 -405 9z m425 -59 c447 -65 837
-277 1145 -621 214 -239 371 -559 437 -894 24 -120 27 -159 27 -345 1 -181 -2
-227 -23 -335 -100 -522 -383 -946 -833 -1249 -75 -50 -258 -145 -328 -170
-19 -7 -44 -17 -55 -22 -28 -12 -180 -55 -240 -68 -410 -89 -843 -37 -1220
148 -540 265 -916 757 -1030 1349 -36 183 -38 464 -5 662 39 232 146 505 278
709 93 142 281 349 402 441 25 19 47 37 50 40 3 4 32 25 66 47 277 187 599
299 934 325 86 7 294 -2 395 -17z"/>
<path d="M2400 4148 c-219 -21 -414 -76 -596 -168 -702 -356 -1047 -1138 -838
-1900 23 -86 81 -238 112 -294 147 -271 321 -467 554 -624 175 -118 438 -220
663 -256 132 -22 418 -15 553 12 506 103 925 424 1152 881 111 223 161 431
165 686 2 115 -1 199 -11 260 -8 50 -17 106 -21 125 -10 65 -82 269 -128 364
-76 157 -177 298 -310 432 -174 176 -353 294 -572 379 -94 35 -255 79 -328 89
-166 20 -280 25 -395 14z"/>
</g>
</svg>
